<?xml version="1.0" encoding="UTF-8" standalone="no"?>
<!DOCTYPE svg PUBLIC "-//W3C//DTD SVG 1.1//EN" "http://www.w3.org/Graphics/SVG/1.1/DTD/svg11.dtd">
<svg width="100%" height="100%" viewBox="0 0 512 512" version="1.1" xmlns="http://www.w3.org/2000/svg" xmlns:xlink="http://www.w3.org/1999/xlink" xml:space="preserve" xmlns:serif="http://www.serif.com/" style="fill-rule:evenodd;clip-rule:evenodd;stroke-linejoin:round;stroke-miterlimit:2;">
    <g transform="matrix(1.45918,0,0,1.45918,-373.551,8.24012e-14)">
        <circle cx="431.441" cy="175.441" r="175.441" style="fill:rgb(1,0,215);"/>
    </g>
    <g transform="matrix(1,0,0,1,7.84515,25.2356)">
        <text x="154.421px" y="318.067px" style="font-family:'ArialMT', 'Arial', sans-serif;font-size:243.923px;fill:white;">G</text>
    </g>
    <g transform="matrix(1,0,0,1,55.392,-1.43217)">
        <rect x="160.865" y="56.696" width="79.485" height="75.189" style="fill:rgb(0,255,195);"/>
    </g>
    <g transform="matrix(1,0,0,1,227.252,161.709)">
        <rect x="160.865" y="56.696" width="79.485" height="75.189" style="fill:rgb(0,255,195);"/>
    </g>
    <g transform="matrix(1,0,0,1,55.392,337.15)">
        <rect x="160.865" y="56.696" width="79.485" height="75.189" style="fill:rgb(0,255,195);"/>
    </g>
    <g transform="matrix(1,0,0,1,-110.739,161.709)">
        <rect x="160.865" y="56.696" width="79.485" height="75.189" style="fill:rgb(0,255,195);"/>
    </g>
</svg>
